<svg width="64" height="64" viewBox="0 0 64 64" fill="none" xmlns="http://www.w3.org/2000/svg">
  <rect width="64" height="64" rx="18" fill="#07111F"/>
  <rect x="1" y="1" width="62" height="62" rx="17" stroke="#18B8FF" stroke-width="2"/>
  <path d="M18 43V20H24.5L38.5 33.8V20H46V43H39.5L25.5 29.2V43H18Z" fill="white"/>
  <path d="M48 43H37V36H49C51 36 52 35 52 33.7C52 32.3 51 31.4 49 31.4H39V25H48.4C50.2 25 51.1 24.1 51.1 22.8C51.1 21.6 50.2 20.7 48.4 20.7H36V14H49.6C56 14 59.5 17.2 59.5 22.1C59.5 25 58 27.4 55.5 28.6C58.8 29.8 60.6 32.4 60.6 35.7C60.6 40.4 57.1 43 48 43Z" fill="#F3C934"/>
</svg>